<svg class="icon line-color" width="48" height="48" id="filter-alt" data-name="Line color" xmlns="http://www.w3.org/2000/svg" viewBox="0 0 24 24"><path id="primary" d="M12,7V21m7-7v7m0-11V3M5,3V17" style="fill: none; stroke: rgb(123, 44, 191); stroke-linecap: round; stroke-linejoin: round; stroke-width: 2;"></path><path id="secondary" d="M7,19a2,2,0,1,1-2-2A2,2,0,0,1,7,19ZM12,3a2,2,0,1,0,2,2A2,2,0,0,0,12,3Zm7,7a2,2,0,1,0,2,2A2,2,0,0,0,19,10Z" style="fill: none; stroke: rgb(199, 125, 255); stroke-linecap: round; stroke-linejoin: round; stroke-width: 2;"></path></svg>