<svg class="icon line-color" width="48" height="48" id="headset-alt" data-name="line color" xmlns="http://www.w3.org/2000/svg" viewBox="0 0 24 24"><path id="secondary" d="M4,14l-.19-2A8.23,8.23,0,0,1,12,3h0a8.23,8.23,0,0,1,8.19,9L20,14" style="fill: none; stroke: rgb(199, 125, 255); stroke-linecap: round; stroke-linejoin: round; stroke-width: 2;"></path><path id="primary" d="M4,14V13a3,3,0,0,1,3-3H8a1,1,0,0,1,1,1v5a1,1,0,0,1-1,1H7A3,3,0,0,1,4,14Zm16,0V13a3,3,0,0,0-3-3H16a1,1,0,0,0-1,1v5a1,1,0,0,0,1,1h1A3,3,0,0,0,20,14Zm-8,6h3.25A1.89,1.89,0,0,0,17,18V17" style="fill: none; stroke: rgb(123, 44, 191); stroke-linecap: round; stroke-linejoin: round; stroke-width: 2;"></path></svg>