<svg class="icon line-color" width="48" height="48" id="launch" data-name="Line Color" xmlns="http://www.w3.org/2000/svg" viewBox="0 0 24 24"><path id="secondary" d="M9,21H5l.81-3.25a2,2,0,0,1,.83-1.18l1.52-1M15,21h4l-.81-3.25a2,2,0,0,0-.83-1.18l-1.52-1" style="fill: none; stroke: rgb(199, 125, 255); stroke-linecap: round; stroke-linejoin: round; stroke-width: 2;"></path><path id="primary" d="M15,21H9L7.77,13a10,10,0,0,1,2.81-8.59l.71-.71a1,1,0,0,1,1.42,0l.71.71A10,10,0,0,1,16.23,13ZM12,10v3" style="fill: none; stroke: rgb(123, 44, 191); stroke-linecap: round; stroke-linejoin: round; stroke-width: 2;"></path></svg>