<?xml version="1.0"?>
<svg xmlns="http://www.w3.org/2000/svg" xmlns:xlink="http://www.w3.org/1999/xlink" xmlns:svgjs="http://svgjs.com/svgjs" version="1.1" width="512" height="512" x="0" y="0" viewBox="0 0 512 512" style="enable-background:new 0 0 512 512" xml:space="preserve" class=""><g><g xmlns="http://www.w3.org/2000/svg"><path d="m502.89 215.713c-9.134-3.899-18.261-7.816-27.388-11.732l-10.402-4.462c-11.323-20.74-27.789-39.762-48.1-55.581v-63.438c0-8.284-6.716-15-15-15-14.519 0-28.616 4.303-40.609 12.04-11.671-34.298-44.196-59.04-82.391-59.04-47.641 0-86.455 38.494-86.988 86.011-40.109 11.325-74.833 31.582-100.872 58.949-21.566 22.666-35.632 48.63-41.552 76.297-11.963-6.579-19.588-19.147-19.588-33.257 0-6.441 1.653-12.823 4.782-18.455 4.023-7.242 1.414-16.374-5.828-20.396-7.24-4.023-16.373-1.414-20.396 5.828-5.599 10.077-8.558 21.496-8.558 33.023 0 29.465 18.583 55.164 46.403 64.465.34 52.04 28.656 100.387 78.072 133.606 5.961 25.774 11.927 51.55 17.908 77.32 1.577 6.797 7.634 11.609 14.611 11.609h49.002c6.98 0 13.039-4.815 14.613-11.616l8.951-38.667c23.5 3.06 47.771 3.031 71.231-.073 2.99 12.917 5.98 25.833 8.979 38.748 1.577 6.797 7.634 11.608 14.611 11.608h49.001c6.98 0 13.039-4.816 14.613-11.617l5.35-23.109c4.219-18.224 8.437-36.449 12.661-54.672 25.474-17.296 45.736-39.094 59.081-63.558l11.394-4.882c8.813-3.775 17.627-7.551 26.438-11.334 5.51-2.366 9.081-7.786 9.081-13.783v-81.038c0-6.007-3.585-11.435-9.11-13.794zm-223.89-167.213c31.43 0 57 25.57 57 57 0 18.753-9.393 36.422-24.75 47h-64.5c-15.357-10.578-24.75-28.247-24.75-47 0-31.43 25.57-57 57-57zm203 252.16c-5.776 2.477-11.554 4.952-17.331 7.426l-16.308 6.988c-3.26 1.397-5.919 3.906-7.506 7.079-11.645 23.292-31.068 44.065-56.172 60.072-3.31 2.111-5.66 5.435-6.547 9.259-4.678 20.174-9.348 40.35-14.019 60.525l-2.66 11.491h-25.157c-2.377-10.251-4.75-20.504-7.123-30.757l-2.315-10c-1.814-7.834-9.475-12.845-17.385-11.358-28.857 5.425-59.717 5.464-88.646.097-7.893-1.464-15.539 3.544-17.35 11.364l-9.411 40.654h-25.159c-5.532-23.855-11.053-47.715-16.57-71.573-.89-3.849-3.262-7.19-6.601-9.301-44.076-27.854-69.354-68.897-69.354-112.606 0-60.71 47.969-114.115 120.578-135.717 2.603 7.37 6.181 14.362 10.625 20.775-3.976 2.698-6.59 7.254-6.59 12.421 0 8.284 6.716 15 15 15h126c8.284 0 15-6.716 15-15 0-5.167-2.614-9.723-6.59-12.421 8.35-12.05 13.657-26.137 15.153-40.943.063-.081.132-.153.193-.236 5.409-7.339 12.87-12.793 21.244-15.787v53.329c0 4.826 2.322 9.357 6.239 12.176 20.935 15.062 37.403 33.835 47.627 54.29 1.586 3.175 4.247 5.684 7.51 7.082l15.296 6.561c6.108 2.622 12.217 5.243 18.328 7.859v61.251z" fill="#011455" data-original="#000000" style="" class=""/><path d="m382 221.5c-8.262 0-15 6.738-15 15 0 8.261 6.738 15 15 15s15-6.738 15-15-6.738-15-15-15z" fill="#011455" data-original="#000000" style="" class=""/></g></g></svg>
